<?xml version="1.0" encoding="utf-8"?>
<!-- Generator: Adobe Illustrator 18.1.0, SVG Export Plug-In . SVG Version: 6.00 Build 0)  -->
<svg version="1.1" id="Layer_1" xmlns="http://www.w3.org/2000/svg" xmlns:xlink="http://www.w3.org/1999/xlink" x="0px" y="0px"
	 viewBox="0 0 27.8 25" enable-background="new 0 0 27.8 25" xml:space="preserve">
<path fill="#FFFFFF" d="M12.6,20.3c-0.5,0-0.9,0-1.2,0c-2.1,0.1-3.9-1.3-5.4-3.6c-0.3-0.6-0.7-1.3-0.8-1.8c-0.1-1.2-0.3-2.6-0.1-3.7
	c0.7-2.9,1.5-5.7,4.3-6.4c1.3-0.3,2.5-0.6,4-0.2c0.9,0.2,1.7,0.1,2.6,0.1c2.4-0.1,4.5,3.3,4.6,5.4c0.1,2.3-0.1,4.4-0.9,6.2
	c-0.3,0.8-0.8,1.5-1.5,2C16.7,19.5,14.8,20.5,12.6,20.3z"/>
<rect y="0" fill="none" width="27.8" height="25"/>
</svg>
