<?xml version="1.0" encoding="utf-8"?>
<!-- Generator: Adobe Illustrator 18.1.0, SVG Export Plug-In . SVG Version: 6.00 Build 0)  -->
<svg version="1.1" id="Layer_1" xmlns="http://www.w3.org/2000/svg" xmlns:xlink="http://www.w3.org/1999/xlink" x="0px" y="0px"
	 viewBox="0 0 27.8 25" enable-background="new 0 0 27.8 25" xml:space="preserve">
<path fill="#FFFFFF" d="M12.6,20.3c-0.5,0-0.9,0-1.2,0c-2.1,0.1-3.9-1.3-5.4-3.6c-0.3-0.6-0.7-1.3-0.8-1.8c-0.1-1.2-0.3-2.6-0.1-3.7
	c0.7-2.9,1.5-5.7,4.3-6.4c1.3-0.3,2.5-0.6,4-0.2c0.9,0.2,1.7,0.1,2.6,0.1c2.4-0.1,4.5,3.3,4.6,5.4c0.1,2.3-0.1,4.4-0.9,6.2
	c-0.3,0.8-0.8,1.5-1.5,2C16.7,19.5,14.8,20.5,12.6,20.3z"/>
<path d="M11.3,17.8L11.3,17.8c-0.1-0.1-0.3-0.2-0.4-0.4l-0.5-0.8c-0.5-0.7-1-1.5-1.5-2.3c-0.6-1.1-1.3-2-2-2.7
	c-0.1-0.2-0.2-0.4-0.3-0.6L6.6,11c-0.1-0.3-0.1-0.6,0.2-0.9C6.8,9.9,6.9,9.9,7,9.8c0.2-0.1,0.4-0.2,0.6-0.2c0.2,0,0.4,0.1,0.6,0.3
	c0.6,0.6,1.3,1.3,1.8,2.2c0.4,0.7,1,1.6,1.5,2.4c0.1,0.1,0.1,0.2,0.2,0.3c1-1.4,1.9-2.7,3-3.8c1.2-1.2,2.5-2.6,3.8-4.1
	c0.9-1,1.9-2.2,3.4-3l0.1-0.1l0.2,0c0.2,0,0.4,0.1,0.7,0.2c0.3,0.2,0.4,0.5,0.4,0.6c0,0.1,0,0.2,0,0.3l0,0.3L23,5.5
	c-0.1,0.2-0.2,0.4-0.4,0.6c-0.4,0.5-0.8,0.9-1.2,1.4c-1.1,1.3-2.3,2.7-3.6,4c-1.7,1.8-3.2,3.6-4.4,5.2c-0.2,0.3-0.5,0.5-0.8,0.8
	l-0.2,0.1c-0.2,0.1-0.4,0.2-0.6,0.2l-0.3,0.1L11.3,17.8z"/>
<path d="M22.6,4.7c0-0.1,0-0.2-0.1-0.3c-0.2-0.1-0.4-0.2-0.5-0.2c-1.3,0.7-2.3,1.8-3.2,2.9c-1.2,1.4-2.5,2.8-3.8,4.1
	c-1.3,1.3-2.3,2.8-3.3,4.4c-0.2-0.3-0.4-0.6-0.6-0.9c-0.5-0.8-1-1.6-1.5-2.4c-0.5-0.8-1.1-1.5-1.7-2.1c-0.1-0.1-0.3-0.2-0.5,0
	c0,0-0.1,0.1-0.1,0.1C7,10.5,7,10.6,7,10.8c0.1,0.2,0.2,0.4,0.3,0.6c0.7,0.9,1.4,1.8,2,2.8c0.6,1.1,1.3,2,2,3
	c0.1,0.1,0.2,0.2,0.3,0.3c0.1,0,0.1,0,0.2,0c0.1,0,0.2,0,0.3-0.1c0.3-0.3,0.7-0.5,0.9-0.8c1.4-1.8,2.8-3.6,4.4-5.2
	c1.6-1.7,3.2-3.6,4.7-5.4c0.2-0.2,0.3-0.5,0.5-0.7C22.6,4.9,22.7,4.8,22.6,4.7z"/>
<rect y="0" fill="none" width="27.8" height="25"/>
</svg>
