<svg width="264" height="205" viewBox="0 0 264 205" fill="none" xmlns="http://www.w3.org/2000/svg">
<path d="M3.35283 160.351C35.6366 134.38 61.7686 126.546 84.9371 130.154C107.429 133.657 125.108 147.816 140.421 160.052C156.533 172.927 170.07 183.679 186.153 186.389C201.359 188.951 220.99 184.462 249.193 160.504C252.975 157.291 258.647 157.752 261.861 161.532C265.075 165.312 264.615 170.982 260.833 174.195C230.431 200.02 205.594 207.884 183.166 204.106C161.615 200.475 144.352 186.196 129.197 174.086C113.242 161.337 99.1839 150.556 82.1696 147.907C65.8319 145.362 44.6866 150.161 14.622 174.347C10.7552 177.458 5.09787 176.847 1.98588 172.982C-1.12586 169.117 -0.513847 163.462 3.35283 160.351Z" fill="white"/>
<path d="M254.734 0C254.641 0.21678 210.252 103.804 140.124 87.457C137.826 86.9214 134.828 85.3492 132.018 83.5523L129.303 87.3415C133.157 90.2414 136.854 93.1947 140.421 96.0449C156.533 108.92 170.07 119.672 186.153 122.382C201.359 124.943 220.99 120.455 249.193 96.4967C252.975 93.2843 258.647 93.7447 261.861 97.5246C265.075 101.305 264.615 106.975 260.833 110.188C230.431 136.013 205.594 143.877 183.166 140.099C161.615 136.468 144.352 122.189 129.197 110.079C113.242 97.3298 99.1839 86.5494 82.1696 83.8996C65.8319 81.3553 44.6866 86.1551 14.622 110.341C10.7552 113.452 5.09781 112.84 1.98588 108.975C-1.12578 105.11 -0.513817 99.4545 3.35283 96.3439C35.6366 70.3728 61.7686 62.5387 84.9371 66.1469C97.472 68.0991 108.512 73.3616 118.481 79.7558C137.839 52.4247 161.63 23.8318 215.394 24.4098C215.394 24.4098 151.574 9.53351 117.087 63.6181C117.087 63.6181 108.519 49.8677 111.491 37.1284C114.464 24.389 133.543 0.293415 166.939 1.36199C200.335 2.4306 245.379 11.2512 254.734 0Z" fill="white"/>
</svg>
