<svg width="160" height="160" viewBox="0 0 160 160" fill="none" xmlns="http://www.w3.org/2000/svg">
<path d="M38.751 68.9847C39.4281 68.9847 40.1833 69.0888 41.0166 69.2971C41.8499 69.5055 42.6832 69.7919 43.5165 70.1565C44.3499 70.5211 45.1832 70.8596 46.0165 71.1721C46.8498 71.4846 47.605 71.7971 48.282 72.1096L47.0321 72.2658C46.6154 72.3179 46.1727 72.3439 45.704 72.3439C44.8186 72.3439 44.0113 72.2137 43.2822 71.9533C42.553 71.6929 41.876 71.3544 41.251 70.9377C40.626 70.5211 40.001 70.2086 39.376 70.0003C38.751 69.7919 38.1781 69.6357 37.6573 69.5315C37.1365 69.5315 36.6678 69.6357 36.2511 69.844C35.8344 70.0523 35.4178 70.2867 35.0011 70.5471C35.0011 70.3388 34.8188 70.2346 34.4543 70.2346C34.8188 69.87 35.4959 69.5836 36.4855 69.3753C37.475 69.1669 38.2302 69.0367 38.751 68.9847ZM49.2976 72.5002C51.433 72.5002 53.3861 72.8648 55.1569 73.5939C54.4277 73.8543 53.6986 74.0627 52.9694 74.2189C52.2403 74.3751 51.4851 74.4793 50.7039 74.5314C49.6622 74.5314 48.7247 74.4272 47.8914 74.2189C48.1518 73.8022 48.4123 73.5418 48.6727 73.4377C48.9331 73.3335 49.1414 73.021 49.2976 72.5002ZM80 0.00200316C87.3436 0.00200316 94.4007 0.965521 101.171 2.89256C107.942 4.81959 114.296 7.50182 120.233 10.9392C126.171 14.3766 131.587 18.5692 136.483 23.517C141.379 28.4648 145.545 33.8553 148.983 39.6885C152.42 45.5217 155.128 51.8757 157.107 58.7505C159.087 65.6254 160.05 72.7085 159.998 80C159.998 87.3436 159.034 94.4007 157.107 101.171C155.18 107.942 152.498 114.296 149.061 120.233C145.623 126.171 141.431 131.587 136.483 136.483C131.535 141.379 126.145 145.545 120.311 148.983C114.478 152.42 108.124 155.128 101.249 157.107C94.3746 159.087 87.2915 160.05 80 159.998C72.6564 159.998 65.5993 159.034 58.8287 157.107C52.058 155.18 45.704 152.498 39.7666 149.061C33.8293 145.623 28.4128 141.431 23.517 136.483C18.6213 131.535 14.4548 126.145 11.0174 120.311C7.57994 114.478 4.87167 108.124 2.89256 101.249C0.913439 94.3746 -0.0500789 87.2915 0.00200316 80C0.00200316 72.6564 0.965521 65.5993 2.89256 58.8287C4.81959 52.058 7.50182 45.704 10.9392 39.7666C14.3766 33.8293 18.5692 28.4128 23.517 23.517C28.4648 18.6213 33.8553 14.4548 39.6885 11.0174C45.5217 7.57994 51.8757 4.87167 58.7505 2.89256C65.6254 0.913439 72.7085 -0.0500789 80 0.00200316ZM139.53 43.3603C138.801 42.2145 138.071 41.1208 137.342 40.0791C136.613 39.0375 135.858 37.9698 135.077 36.8761C134.973 37.3448 134.842 37.6834 134.686 37.8917C134.53 38.1 134.426 38.5687 134.374 39.2979C134.374 39.7666 134.556 40.2093 134.921 40.626C135.285 41.0426 135.754 41.4593 136.327 41.876C136.9 42.2926 137.473 42.6051 138.045 42.8134C138.618 43.0218 139.113 43.204 139.53 43.3603ZM134.139 35.7042C134.139 36.1209 134.061 36.4073 133.905 36.5636H134.374C134.582 36.5636 134.738 36.5896 134.842 36.6417L134.139 35.7042ZM80 149.998C85.9374 149.998 91.7445 149.243 97.4214 147.733C103.098 146.222 108.463 144.087 113.515 141.327C118.567 138.566 123.254 135.181 127.577 131.171C131.9 127.16 135.676 122.681 138.905 117.733C138.228 116.171 137.577 114.582 136.952 112.968C136.327 111.353 136.014 109.687 136.014 107.968C136.014 106.093 136.092 104.583 136.249 103.437C136.405 102.291 136.587 101.276 136.795 100.39C137.004 99.5047 137.108 98.7495 137.108 98.1246C137.108 97.4996 137.03 96.6923 136.874 95.7027C136.717 94.7132 136.275 93.6455 135.545 92.4997C134.816 91.3539 133.853 89.7393 132.655 87.6561C132.707 87.2915 132.785 86.7967 132.889 86.1717C132.993 85.5467 133.098 84.8957 133.202 84.2186C133.306 83.5416 133.332 82.9166 133.28 82.3437C133.228 81.7708 133.098 81.276 132.889 80.8594C131.535 80.7031 130.129 80.4167 128.671 80C127.212 79.5833 125.91 78.9584 124.765 78.1251L125.233 77.7344C124.556 77.8907 123.879 78.099 123.202 78.3594C122.525 78.6198 121.874 78.9063 121.249 79.2188C120.624 79.5313 119.947 79.7396 119.218 79.8438C118.489 79.9479 117.786 80.0521 117.108 80.1562L115.858 80L116.093 79.4531C115.364 79.6615 114.582 79.9219 113.749 80.2344C112.916 80.5469 112.109 80.7031 111.327 80.7031C110.807 80.7031 110.051 80.5208 109.062 80.1562C108.072 79.7917 107.083 79.349 106.093 78.8282C105.104 78.3073 104.218 77.7344 103.437 77.1095C102.656 76.4845 102.265 75.8855 102.265 75.3126L102.421 75.0783C102.161 74.7658 101.822 74.4793 101.406 74.2189C100.989 73.9585 100.598 73.6981 100.234 73.4377C99.8693 73.1773 99.5308 72.8908 99.2183 72.5783C98.9058 72.2658 98.7756 71.9012 98.8277 71.4846L99.687 70.7815L97.8902 70.5471L97.2652 68.2034C97.3694 68.4638 97.6037 68.568 97.9683 68.5159C98.3329 68.4638 98.6193 68.3597 98.8277 68.2034L96.0152 66.7191L97.9683 61.7192C97.2392 59.0109 97.0569 56.9277 97.4214 55.4694C97.786 54.0111 98.4891 52.8132 99.5308 51.8757C100.572 50.9382 101.718 50.0008 102.968 49.0633C104.218 48.1258 105.494 46.8498 106.796 45.2352L106.562 44.2978L111.718 38.0479L112.89 37.8917C114.348 37.8917 115.989 37.8396 117.812 37.7354C119.634 37.6313 121.483 37.449 123.358 37.1886C125.233 36.9282 127.082 36.6678 128.905 36.4073C130.728 36.1469 132.395 35.8084 133.905 35.3917C132.238 33.4126 130.494 31.5377 128.671 29.7669C126.848 27.9961 124.895 26.3034 122.811 24.6889C122.239 24.8972 121.535 25.1837 120.702 25.5482C119.869 25.9128 119.035 26.3816 118.202 26.9545C117.369 27.5274 116.718 28.1523 116.249 28.8294C115.78 29.5065 115.494 30.2096 115.39 30.9387L115.858 32.4231C114.921 33.9334 113.879 34.8709 112.734 35.2355C111.588 35.6001 110.416 35.8084 109.218 35.8605C108.02 35.9126 106.77 35.9126 105.468 35.8605C104.166 35.8084 102.916 36.0428 101.718 36.5636L100.468 33.9074L101.64 29.3763L100.312 27.4232L113.827 23.2045C113.254 21.7463 112.317 20.6525 111.015 19.9234C109.713 19.1942 108.281 18.8297 106.718 18.8297V18.0484L111.093 17.3453C106.249 14.9495 101.223 13.1267 96.0152 11.8767C90.807 10.6267 85.4686 10.0018 80 10.0018C75.4689 10.0018 70.9898 10.4445 66.5628 11.3298C62.1359 12.2152 57.8651 13.4912 53.7507 15.1579C49.6362 16.8245 45.6519 18.9078 41.7978 21.4077C37.9438 23.9077 34.4282 26.7201 31.2512 29.845C32.6054 29.845 33.647 30.1835 34.3761 30.8606C35.1053 31.5377 35.7824 32.2929 36.4073 33.1262C37.0323 33.9595 37.6834 34.7147 38.3604 35.3917C39.0375 36.0688 39.9489 36.4334 41.0947 36.4855L42.3447 35.548L42.1884 33.8293L44.7665 30.1575L42.7353 24.3764C42.9957 24.2201 43.3863 23.9597 43.9072 23.5952C44.428 23.2306 44.8707 23.0483 45.2352 23.0483C46.7977 23.0483 47.9956 23.1264 48.8289 23.2827C49.6622 23.4389 50.3914 23.7254 51.0164 24.142C51.6413 24.5587 52.1882 25.1576 52.6569 25.9389C53.1257 26.7201 53.8548 27.7096 54.8444 28.9075L57.6568 26.7201C58.1776 26.9284 59.0109 27.2669 60.1567 27.7357C61.3026 28.2044 62.4744 28.7773 63.6723 29.4544C64.8702 30.1315 65.8858 30.8346 66.7191 31.5637C67.5524 32.2929 67.9951 32.9699 68.0472 33.5949C68.0472 34.3761 67.7607 35.0011 67.1878 35.4699C66.6149 35.9386 65.8597 36.3292 64.9223 36.6417C63.9848 36.9542 63.0213 37.1886 62.0317 37.3448C61.0421 37.5011 60.0526 37.7094 59.063 37.9698C58.0735 38.2302 57.3183 38.4906 56.7975 38.751C56.2766 39.0114 55.9641 39.4541 55.86 40.0791L60.3911 41.5635C59.3495 42.4489 58.2297 43.2561 57.0318 43.9853C55.8339 44.7144 54.584 45.3915 53.2819 46.0165L53.5944 47.3446L46.4071 50.157V52.3444L45.8602 52.5788L46.2508 49.8445L45.9384 49.7664C45.5738 49.7664 45.3655 49.8445 45.3134 50.0008C45.2613 50.157 45.2352 50.3393 45.2352 50.5476C45.2352 50.7559 45.2873 50.9643 45.3915 51.1726C45.4957 51.3809 45.5217 51.5372 45.4696 51.6413L44.454 51.0945L44.6103 51.407C44.6103 51.5632 44.6884 51.7976 44.8446 52.1101C45.0009 52.4226 45.2092 52.709 45.4696 52.9694C45.73 53.2298 45.9384 53.4902 46.0946 53.7507C46.2508 54.0111 46.355 54.1413 46.4071 54.1413C46.4071 54.2975 46.3029 54.4538 46.0946 54.61C45.8863 54.7663 45.6259 54.8704 45.3134 54.9225C45.0009 54.9746 44.7926 55.0527 44.6884 55.1569C44.5842 55.261 44.5842 55.2871 44.6884 55.235C45.4175 55.235 45.5738 55.2871 45.1571 55.3912C44.7405 55.4954 44.0894 55.7558 43.204 56.1725C42.3187 56.5891 41.5114 57.1881 40.7822 57.9693C40.0531 58.7505 39.6364 59.8963 39.5323 61.4067C39.5323 62.2921 39.5583 63.1515 39.6104 63.9848C39.6625 64.8181 39.6364 65.6774 39.5323 66.5628C38.8031 64.5837 37.7094 63.0733 36.2511 62.0317C34.7928 60.9901 33.022 60.4692 30.9387 60.4692L27.5794 60.7817L29.22 61.8755C28.3346 61.7713 27.4232 61.6671 26.4857 61.563C25.5482 61.4588 24.5847 61.4328 23.5952 61.4848C22.6056 61.5369 21.7202 61.7453 20.939 62.1098C20.1577 62.4744 19.3765 63.0213 18.5953 63.7504L18.1265 67.2659C18.1265 68.9326 18.4911 70.2867 19.2203 71.3283C19.9494 72.37 21.2254 72.9168 23.0483 72.9689C24.6108 72.9689 26.1472 72.7346 27.6576 72.2658C29.1679 71.7971 30.6523 71.2502 32.1106 70.6252C31.6418 71.771 31.121 72.8648 30.5481 73.9064C29.9752 74.948 29.5586 76.0939 29.2981 77.3438L30.3137 77.8126C31.5637 76.9792 32.7095 76.849 33.7512 77.4219C34.7928 77.9948 35.8084 78.8282 36.798 79.9219C37.7875 81.0156 38.8031 82.1354 39.8448 83.2812C40.8864 84.427 42.0062 85.2603 43.204 85.7811L40.5479 87.1873L34.298 83.6718C34.3501 83.776 34.4022 84.0103 34.4543 84.3749C34.5063 84.7395 34.4803 84.8176 34.3761 84.6093L31.5637 79.8438C29.8971 79.7917 28.1263 79.5313 26.2513 79.0625C24.3764 78.5938 22.4754 77.9688 20.5484 77.1876C18.6213 76.4063 16.8245 75.547 15.1579 74.6095C13.4912 73.672 11.9548 72.6825 10.5486 71.6408L10.0018 80C10.0018 86.354 10.8611 92.5518 12.5798 98.5933C14.2985 104.635 16.7203 110.312 19.8453 115.624C22.9702 120.936 26.7982 125.78 31.3293 130.155C35.8605 134.53 40.8864 138.254 46.4071 141.327C46.1467 140.233 46.1206 139.139 46.329 138.045C46.5373 136.952 46.7977 135.858 47.1102 134.764C47.4227 133.671 47.7612 132.577 48.1258 131.483C48.4904 130.389 48.6727 129.27 48.6727 128.124C48.6727 126.457 48.4123 124.712 47.8914 122.89C47.3706 121.067 46.7456 119.218 46.0165 117.343C45.2873 115.468 44.4801 113.619 43.5947 111.796C42.7093 109.973 42.0062 108.255 41.4853 106.64C40.9645 105.025 40.5479 103.515 40.2354 102.109C39.9229 100.703 40.0791 99.4787 40.7041 98.437L39.5323 97.8902C39.8448 97.161 40.2614 96.4579 40.7822 95.7809C41.3031 95.1038 41.8499 94.4267 42.4228 93.7497C42.9957 93.0726 43.4384 92.3434 43.7509 91.5622C44.0634 90.781 44.2457 89.9998 44.2978 89.2185C44.2978 88.6977 44.1936 88.1508 43.9853 87.5779C43.777 87.005 43.5947 86.4582 43.4384 85.9374L45.079 86.328C45.9644 84.2968 47.1623 82.9166 48.6727 82.1874C50.183 81.4583 52.084 81.0677 54.3756 81.0156C54.6361 81.0156 55.1829 81.1198 56.0162 81.3281C56.8495 81.5364 57.7349 81.8229 58.6724 82.1874C59.6099 82.552 60.4953 82.8385 61.3286 83.0468C62.1619 83.2551 62.7869 83.4635 63.2035 83.6718C63.2035 84.0364 63.4119 84.2707 63.8285 84.3749C64.2452 84.4791 64.4796 84.6613 64.5316 84.9218L64.3754 85.5467C64.5316 85.5988 64.8962 85.7811 65.4691 86.0936C66.042 86.4061 66.667 86.7967 67.3441 87.2654C68.0211 87.7342 68.6201 88.1508 69.1409 88.5154C69.6617 88.88 70.0263 89.1664 70.2346 89.3748C71.1721 89.3748 72.4481 89.6873 74.0627 90.3122C75.6772 90.9372 77.448 91.7185 79.375 92.6559C81.3021 93.5934 83.203 94.7132 85.078 96.0152C86.953 97.3173 88.7237 98.6193 90.3904 99.9214C92.057 101.223 93.333 102.525 94.2184 103.828C95.1038 105.13 95.6246 106.275 95.7809 107.265L93.1247 110.077C93.333 112.734 93.1507 114.765 92.5778 116.171C92.0049 117.577 91.1195 118.749 89.9216 119.687C88.7237 120.624 87.3436 121.405 85.7811 122.03C84.2186 122.655 82.526 123.541 80.7031 124.686C80.7031 125.728 80.4427 126.848 79.9219 128.046C79.4011 129.244 78.75 130.389 77.9688 131.483C77.1876 132.577 76.2501 133.488 75.1564 134.217C74.0627 134.947 72.9689 135.311 71.8752 135.311L68.594 132.811C68.6982 132.915 68.6982 133.098 68.594 133.358C68.4899 133.618 68.3597 133.671 68.2034 133.514C68.7242 134.504 68.8544 135.65 68.594 136.952C68.3336 138.254 67.8909 139.582 67.2659 140.936C66.641 142.29 65.9379 143.566 65.1566 144.764C64.3754 145.962 63.6723 146.977 63.0473 147.811C65.8597 148.54 68.6722 149.087 71.4846 149.451C74.297 149.816 77.1355 149.998 80 149.998Z" fill="white"/>
</svg>
