<svg width="139" height="146" viewBox="0 0 139 146" fill="none" xmlns="http://www.w3.org/2000/svg">
<path d="M6 28.4118V73.2353M6 28.4118C6 28.4118 6 50.8235 58.2941 50.8235C110.588 50.8235 110.588 28.4118 110.588 28.4118M6 28.4118C6 28.4118 6 6 58.2941 6C110.588 6 110.588 28.4118 110.588 28.4118M6 73.2353C6 73.2353 6 95.647 58.2941 95.647C110.588 95.647 110.588 73.2353 110.588 73.2353V28.4118M6 73.2353V118.059C6 118.059 6 140.471 58.2941 140.471M88.1765 140.471V125.529M110.588 140.471V110.588M133 140.471V95.647" stroke="white" stroke-width="11" stroke-linecap="round" stroke-linejoin="round"/>
</svg>
