<svg width="148" height="183" viewBox="0 0 148 183" fill="none" xmlns="http://www.w3.org/2000/svg">
<path d="M30.2764 112.085C31.5308 112.085 32.5709 112.498 33.3955 113.324C34.213 114.151 34.798 115.398 35.1504 117.065C37.2647 128.906 42.7828 137.348 51.7051 142.393C57.6436 145.757 63.2074 147.881 68.3955 148.77C70.2652 147.05 72.7598 146 75.5 146C81.299 146 86 150.701 86 156.5C86 162.299 81.299 167 75.5 167C70.0791 167 65.6183 162.892 65.0596 157.619C59.0607 156.319 52.7692 153.743 46.1865 149.885C35.3614 143.541 28.5849 133.013 25.8574 118.305C25.4699 116.235 25.7629 114.681 26.7354 113.643C27.7079 112.604 28.8881 112.085 30.2764 112.085Z" fill="white"/>
<path d="M103.5 137C108.194 137 112 140.806 112 145.5C112 150.194 108.194 154 103.5 154C98.8056 154 95 150.194 95 145.5C95 140.806 98.8056 137 103.5 137Z" fill="white"/>
<path d="M70.5 131C74.6421 131 78 134.358 78 138.5C78 142.642 74.6421 146 70.5 146C66.3579 146 63 142.642 63 138.5C63 134.358 66.3579 131 70.5 131Z" fill="white"/>
<path d="M85.5 120C89.6421 120 93 123.358 93 127.5C93 131.642 89.6421 135 85.5 135C81.3579 135 78 131.642 78 127.5C78 123.358 81.3579 120 85.5 120Z" fill="white"/>
<path d="M119.5 120C123.642 120 127 123.358 127 127.5C127 131.642 123.642 135 119.5 135C115.358 135 112 131.642 112 127.5C112 123.358 115.358 120 119.5 120Z" fill="white"/>
<path d="M48.5 118C52.6421 118 56 121.358 56 125.5C56 129.642 52.6421 133 48.5 133C44.3579 133 41 129.642 41 125.5C41 121.358 44.3579 118 48.5 118Z" fill="white"/>
<path d="M67.5 110C71.6421 110 75 113.358 75 117.5C75 121.642 71.6421 125 67.5 125C63.3579 125 60 121.642 60 117.5C60 113.358 63.3579 110 67.5 110Z" fill="white"/>
<path d="M102.5 104C106.642 104 110 107.358 110 111.5C110 115.642 106.642 119 102.5 119C98.3579 119 95 115.642 95 111.5C95 107.358 98.3579 104 102.5 104Z" fill="white"/>
<path d="M21 102C24.3137 102 27 104.686 27 108C27 111.314 24.3137 114 21 114C17.6863 114 15 111.314 15 108C15 104.686 17.6863 102 21 102Z" fill="white"/>
<path d="M47 102C50.3137 102 53 104.686 53 108C53 111.314 50.3137 114 47 114C43.6863 114 41 111.314 41 108C41 104.686 43.6863 102 47 102Z" fill="white"/>
<path d="M122.5 102C125.538 102 128 104.462 128 107.5C128 110.538 125.538 113 122.5 113C119.462 113 117 110.538 117 107.5C117 104.462 119.462 102 122.5 102Z" fill="white"/>
<path d="M76.1025 102.894C76.7135 99.6368 79.8496 97.4917 83.1064 98.1025C86.3632 98.7135 88.5083 101.85 87.8975 105.106C87.2865 108.363 84.1511 110.508 80.8945 109.897C77.6376 109.287 75.4917 106.15 76.1025 102.894Z" fill="white"/>
<path d="M62.5 93C64.9853 93 67 95.0147 67 97.5C67 99.9853 64.9853 102 62.5 102C60.0147 102 58 99.9853 58 97.5C58 95.0147 60.0147 93 62.5 93Z" fill="white"/>
<path d="M113.5 92C115.433 92 117 93.567 117 95.5C117 97.433 115.433 99 113.5 99C111.567 99 110 97.433 110 95.5C110 93.567 111.567 92 113.5 92Z" fill="white"/>
<path d="M33.5 88C35.9853 88 38 90.0147 38 92.5C38 94.9853 35.9853 97 33.5 97C31.0147 97 29 94.9853 29 92.5C29 90.0147 31.0147 88 33.5 88Z" fill="white"/>
<path d="M92.5693 88.0381C92.884 86.3603 94.4999 85.2547 96.1777 85.5693C97.8554 85.8841 98.9602 87.5 98.6455 89.1777C98.3307 90.8553 96.7158 91.9601 95.0381 91.6455C93.3604 91.3309 92.2548 89.7158 92.5693 88.0381Z" fill="white"/>
<path fill-rule="evenodd" clip-rule="evenodd" d="M74 0C75.5645 2.49756e-07 77.0938 0.30728 78.5879 0.921875C80.0819 1.53648 81.4666 2.41982 82.7422 3.57129C89.2471 9.43498 96.2955 16.3403 103.886 24.2881C111.476 32.2217 118.545 40.668 125.092 49.626C131.639 58.5839 137.094 67.941 141.456 77.6973C145.819 87.4536 148 97.1325 148 106.733C148 128.436 140.945 146.575 126.836 161.149C112.713 175.716 95.0972 183 73.9688 183C52.833 183 35.22 175.717 21.1318 161.149C7.04368 146.575 3.8378e-05 128.436 0 106.733C0 97.1254 2.18516 87.4465 6.55469 77.6973C10.9171 67.9482 16.3681 58.5946 22.9082 49.6367C29.4625 40.6716 36.531 32.2217 44.1143 24.2881C51.7045 16.3474 58.7529 9.43836 65.2578 3.56055C66.5263 2.42324 67.9111 1.54353 69.4121 0.921875C70.9062 0.30728 72.4355 0 74 0ZM74 9.73828C53.0335 28.9893 37.2224 46.7396 26.5664 62.9883C15.9105 79.2369 10.5784 93.8082 10.5713 106.701C10.5713 125.599 16.562 141.276 28.543 153.731C40.5239 166.186 55.6763 172.41 74 172.403C92.3237 172.403 107.476 166.176 119.457 153.721C131.438 141.266 137.429 125.592 137.429 106.701C137.429 93.8082 132.097 79.2369 121.434 62.9883C110.771 46.7396 94.9594 28.9894 74 9.73828Z" fill="white"/>
</svg>
