<svg width="182" height="182" viewBox="0 0 182 182" fill="none" xmlns="http://www.w3.org/2000/svg">
<path fill-rule="evenodd" clip-rule="evenodd" d="M122.898 120.6C138.788 104.52 164.682 103.973 181.239 119.555L182 120.272L161.706 141.875C163.71 142.52 165.605 143.608 167.24 145.147C173.127 150.687 173.412 159.955 167.877 165.847C162.342 171.74 153.083 172.025 147.196 166.485C145.561 164.946 144.359 163.12 143.593 161.158L124.016 182L123.254 181.283C106.435 165.454 105.619 138.975 121.434 122.139L122.15 121.377L122.898 120.6ZM127.525 127.871C116.595 139.507 115.596 156.9 124.203 169.584L169.631 121.223C156.453 113.406 139.171 115.474 128.241 127.109L127.525 127.871Z" fill="white"/>
<path fill-rule="evenodd" clip-rule="evenodd" d="M51.6486 40.6708C57.1836 34.7784 66.4429 34.4929 72.3298 40.033L122.58 87.3237C128.375 92.7773 128.742 101.843 123.472 107.745L123.217 108.024L108.184 124.028L107.922 124.3C102.361 129.928 93.298 130.119 87.5031 124.666L37.2528 77.3749C31.3659 71.8348 31.0806 62.5669 36.6156 56.6745L51.6486 40.6708ZM42.7066 62.4067C40.3344 64.932 40.4567 68.9039 42.9796 71.2783L93.2299 118.569C95.7529 120.943 99.7212 120.821 102.093 118.296L117.126 102.292C119.498 99.7667 119.376 95.7947 116.853 93.4204L66.6029 46.1297C64.08 43.7553 60.1117 43.8777 57.7396 46.403L42.7066 62.4067Z" fill="white"/>
<path fill-rule="evenodd" clip-rule="evenodd" d="M27.1414 100.363C32.7028 94.7353 41.7653 94.5436 47.5602 99.9972L64.3103 115.761C70.1052 121.214 70.4719 130.28 65.2024 136.182L64.9474 136.461L42.04 160.848C36.5915 166.648 27.5344 167.015 21.6375 161.741L21.3589 161.486L4.60877 145.722C-1.27812 140.182 -1.56339 130.914 3.97161 125.022L26.879 100.635L27.1414 100.363ZM10.0626 130.754C7.69041 133.279 7.81267 137.251 10.3356 139.625L27.0857 155.389C29.6087 157.763 33.5769 157.641 35.9491 155.116L58.8565 130.729C61.2286 128.204 61.1064 124.232 58.5834 121.857L41.8333 106.094C39.3104 103.719 35.3421 103.842 32.97 106.367L10.0626 130.754Z" fill="white"/>
<path fill-rule="evenodd" clip-rule="evenodd" d="M117.339 4.3411C122.901 -1.2867 131.963 -1.47839 137.758 3.97521L154.508 19.7388C160.303 25.1924 160.67 34.2579 155.4 40.1604L155.145 40.4392L132.238 64.8258C126.789 70.6261 117.732 70.9932 111.835 65.7187L111.557 65.4635L94.8067 49.7C88.9198 44.1598 88.6346 34.8919 94.1696 28.9995L117.077 4.61296L117.339 4.3411ZM100.261 34.7317C97.8884 37.257 98.0106 41.229 100.534 43.6033L117.284 59.3669C119.807 61.7413 123.775 61.6189 126.147 59.0936L149.054 34.707C151.427 32.1817 151.304 28.2098 148.781 25.8354L132.031 10.0718C129.508 7.69749 125.54 7.81986 123.168 10.3452L100.261 34.7317Z" fill="white"/>
</svg>
