<svg width="230" height="193" viewBox="0 0 230 193" fill="none" xmlns="http://www.w3.org/2000/svg">
<path d="M2.92102 154.057C31.0471 131.405 53.8135 124.572 73.9983 127.719C93.5933 130.774 108.995 143.124 122.336 153.796C136.373 165.026 148.167 174.404 162.179 176.767C175.427 179.002 192.53 175.086 217.1 154.19C220.395 151.388 225.336 151.79 228.136 155.087C230.937 158.384 230.536 163.329 227.24 166.131C200.755 188.656 179.116 195.515 159.577 192.22C140.801 189.053 125.761 176.599 112.558 166.036C98.6578 154.917 86.4103 145.514 71.5871 143.203C57.3536 140.984 38.9315 145.17 12.7388 166.265C9.37006 168.978 4.44132 168.445 1.73011 165.073C-0.980858 161.702 -0.447674 156.77 2.92102 154.057Z" fill="white"/>
<path d="M162.794 0C163.272 0 163.745 0.0946304 164.185 0.278014C164.626 0.461388 165.027 0.729996 165.364 1.0687L190.764 26.5319C191.273 27.0406 191.619 27.6899 191.76 28.3963C191.9 29.1028 191.829 29.8351 191.553 30.5006C191.278 31.166 190.812 31.7346 190.215 32.1342C189.617 32.5339 188.913 32.7464 188.195 32.7451H170.052V121.477C182.095 121.112 197.131 115.345 217.1 98.3628C220.395 95.561 225.336 95.9625 228.136 99.2594C230.937 102.557 230.536 107.502 227.24 110.304C200.755 132.829 179.116 139.688 159.577 136.393C140.801 133.226 125.761 120.772 112.558 110.209C98.6578 99.0894 86.4102 89.6867 71.5871 87.3755C57.3536 85.1564 38.9315 89.3428 12.7388 110.438C9.37006 113.151 4.44126 112.617 1.73011 109.246C-0.980788 105.875 -0.447648 100.943 2.92102 98.2296C24.2921 81.0177 42.5691 72.9408 58.9701 71.4337V32.7451H40.8268C40.1083 32.7464 39.4054 32.5338 38.8075 32.1342C38.2097 31.7346 37.7433 31.166 37.4682 30.5006C37.193 29.8352 37.1212 29.1027 37.2617 28.3963C37.4023 27.6899 37.7489 27.0406 38.2576 26.5319L63.6579 1.0687C63.9949 0.730048 64.3954 0.461394 64.8361 0.278014C65.2769 0.0946543 65.7499 2.46712e-05 66.2271 0C66.7043 3.71693e-06 67.1773 0.0946775 67.6181 0.278014C68.0588 0.461378 68.4593 0.730063 68.7962 1.0687L94.1965 26.5319C94.7053 27.0406 95.0519 27.6899 95.1925 28.3963C95.333 29.1028 95.2612 29.8352 94.986 30.5006C94.7108 31.166 94.2445 31.7346 93.6466 32.1342C93.0488 32.5338 92.3459 32.7464 91.6274 32.7451H73.484V71.8157C73.6555 71.8409 73.8271 71.8649 73.9983 71.8915C93.5933 74.9468 108.995 87.2964 122.336 97.9688C134.104 107.382 144.295 115.495 155.538 119.264V32.7451H137.394C136.676 32.7464 135.973 32.5338 135.375 32.1342C134.777 31.7346 134.311 31.1661 134.036 30.5006C133.76 29.8352 133.689 29.1027 133.829 28.3963C133.97 27.6899 134.316 27.0406 134.825 26.5319L160.225 1.0687C160.562 0.729937 160.963 0.461398 161.404 0.278014C161.845 0.0946768 162.317 2.46084e-05 162.794 0Z" fill="white"/>
</svg>
