<svg width="218" height="205" viewBox="0 0 218 205" fill="none" xmlns="http://www.w3.org/2000/svg">
<path d="M2.76864 168.157C29.4273 146.726 51.0059 140.262 70.1375 143.239C88.7103 146.13 103.308 157.813 115.953 167.91C129.258 178.534 140.437 187.407 153.717 189.643C166.274 191.756 182.485 188.052 205.773 168.283C208.896 165.632 213.579 166.012 216.234 169.131C218.888 172.251 218.508 176.929 215.384 179.58C190.281 200.89 169.771 207.38 151.251 204.262C133.455 201.266 119.2 189.483 106.685 179.49C93.5104 168.97 81.902 160.075 67.8522 157.888C54.3612 155.789 36.9004 159.749 12.0742 179.706C8.88122 182.273 4.20956 181.769 1.63987 178.579C-0.929818 175.39 -0.424156 170.724 2.76864 168.157Z" fill="white"/>
<path fill-rule="evenodd" clip-rule="evenodd" d="M90.549 37.3139C100.067 35.9803 109.768 37.2178 118.645 40.8973C127.522 44.5767 135.25 50.5641 141.026 58.2368C146.802 65.9097 150.416 74.9878 151.49 84.5277C152.565 94.0674 151.061 103.72 147.136 112.483C144.288 118.843 140.239 124.564 135.238 129.348C141.225 133.048 147.219 135.732 153.717 136.826C166.274 138.94 182.485 135.235 205.773 115.466C208.896 112.815 213.579 113.195 216.234 116.314C218.888 119.434 218.508 124.112 215.384 126.763C190.28 148.074 169.771 154.563 151.251 151.445C133.455 148.449 119.2 136.666 106.685 126.673C93.5104 116.153 81.902 107.258 67.8522 105.071C54.3612 102.972 36.9004 106.932 12.0742 126.89C8.88123 129.456 4.20951 128.952 1.63987 125.763C-0.929752 122.573 -0.424132 117.907 2.76864 115.34C12.2167 107.745 21.0277 102.031 29.3169 97.9491H17.9349C13.6656 97.9489 10.2044 94.4918 10.2044 90.2273C10.2045 85.9628 13.6656 82.5056 17.9349 82.5055H32.159C36.4284 82.5055 39.8894 85.9628 39.8895 90.2273C39.8895 91.5278 39.566 92.7524 38.9975 93.8276C40.7699 93.195 42.5181 92.6394 44.244 92.1589C44.0295 85.0651 45.2223 77.9738 47.7825 71.3017C51.2222 62.3376 57.003 54.4573 64.5238 48.4803C72.0446 42.5032 81.0313 38.6475 90.549 37.3139ZM112.809 54.946C106.444 52.3079 99.488 51.4206 92.664 52.3767C85.8401 53.3329 79.3974 56.0979 74.0052 60.3833C68.6129 64.6687 64.4679 70.3185 62.0017 76.7456C60.3986 80.9235 59.5435 85.3308 59.4549 89.7682C63.107 89.6529 66.6626 89.8814 70.1375 90.4221C88.7103 93.3127 103.308 104.996 115.953 115.093C118.198 116.885 120.382 118.627 122.526 120.296C127.124 116.519 130.795 111.723 133.236 106.272C136.05 99.9894 137.128 93.0681 136.358 86.2283C135.587 79.3884 132.997 72.8794 128.855 67.3781C124.714 61.8769 119.173 57.5841 112.809 54.946Z" fill="white"/>
<path d="M149.587 118.51C151.424 114.66 156.037 113.027 159.892 114.862L172.732 120.974C176.586 122.809 178.221 127.417 176.385 131.267C174.548 135.116 169.934 136.75 166.08 134.915L153.24 128.803C149.386 126.968 147.75 122.36 149.587 118.51Z" fill="white"/>
<path d="M179.253 70.4632C183.492 69.9554 187.341 72.9759 187.849 77.2101C188.358 81.4443 185.333 85.2885 181.094 85.7963L166.972 87.4885C162.733 87.9963 158.884 84.9757 158.376 80.7416C157.867 76.5074 160.891 72.6627 165.13 72.1547L179.253 70.4632Z" fill="white"/>
<path d="M30.8497 29.647C33.5851 26.3728 38.4602 25.9338 41.7382 28.6661L52.6593 37.7687C55.9373 40.5011 56.3768 45.3706 53.6413 48.645C50.9059 51.9192 46.0314 52.3587 42.7534 49.6265L31.8323 40.5232C28.5543 37.7909 28.1142 32.9213 30.8497 29.647Z" fill="white"/>
<path d="M150.856 24.81C153.757 21.6808 158.647 21.4928 161.78 24.3902C164.913 27.2875 165.101 32.1727 162.2 35.302L152.537 45.7276C149.636 48.8568 144.745 49.0447 141.613 46.1475C138.48 43.2501 138.292 38.3649 141.192 35.2356L150.856 24.81Z" fill="white"/>
<path d="M95.418 0.015318C99.6791 -0.250858 103.349 2.9837 103.616 7.24L104.504 21.4203C104.77 25.6766 101.532 29.3428 97.2709 29.609C93.0099 29.8752 89.3395 26.6406 89.073 22.3843L88.1852 8.20401C87.9187 3.94772 91.1569 0.281503 95.418 0.015318Z" fill="white"/>
</svg>
