<svg width="182" height="101" viewBox="0 0 182 101" fill="none" xmlns="http://www.w3.org/2000/svg">
<path d="M58.7525 36.4262C63.7797 36.4262 67.855 40.5034 67.855 45.5328C67.855 50.5622 63.7797 54.6393 58.7525 54.6393C53.7254 54.6393 49.65 50.5622 49.65 45.5328C49.65 40.5034 53.7254 36.4262 58.7525 36.4262Z" fill="white" fill-opacity="0.86"/>
<path d="M123.298 36.4262C128.325 36.4262 132.4 40.5034 132.4 45.5328C132.4 50.5622 128.325 54.6393 123.298 54.6393C118.27 54.6393 114.195 50.5622 114.195 45.5328C114.195 40.5034 118.27 36.4262 123.298 36.4262Z" fill="white" fill-opacity="0.86"/>
<path fill-rule="evenodd" clip-rule="evenodd" d="M136.538 0C143.703 0 151.467 3.96961 157.277 9.11141C163.042 14.2137 167.983 21.4586 167.983 28.9754V68.7131C167.983 71.1071 167.536 78.9517 163.428 86.349C159.14 94.0709 150.99 101 136.538 101C123.014 101 114.6 98.1344 107.837 95.2971C101.008 92.432 97.0087 90.2377 91.0251 90.2377C85.0787 90.2377 80.8552 92.4375 74.7417 95.2421C68.6532 98.0353 61.3981 101 50.4775 101C39.2934 101 30.2532 96.6126 24.0121 90.9152C17.9365 85.3689 14.0675 78.1317 14.0675 72.0246V27.3197C14.0675 19.7969 18.8024 12.9438 24.5745 8.18814C30.4052 3.38436 38.1313 0 45.5125 0H136.538ZM45.5125 8.27869C40.4814 8.27869 34.5536 10.6895 29.8337 14.5783C25.0553 18.5152 22.3425 23.2524 22.3425 27.3197V72.0246C22.3425 75.024 24.556 80.2049 29.5896 84.8C34.4576 89.2439 41.5535 92.7213 50.4775 92.7213C59.6652 92.7213 65.6514 90.3049 71.2927 87.7169C76.9087 85.1405 82.9043 81.959 91.0251 81.959C99.1089 81.959 105.04 85.1459 111.037 87.6619C117.1 90.2058 124.409 92.7213 136.538 92.7213C147.737 92.7213 153.241 87.6461 156.194 82.3293C159.327 76.6877 159.708 70.4585 159.708 68.7131V28.9754C159.708 24.9021 156.787 19.7289 151.795 15.3107C146.847 10.9321 140.957 8.27869 136.538 8.27869H45.5125Z" fill="white" fill-opacity="0.86"/>
<path d="M10.0803 26.4918C11.9125 26.4923 12.1242 28.7791 10.0803 29.8033C7.44419 31.1237 7.33114 33.1148 7.33114 36.4262V66.2295C7.33114 69.541 7.44419 71.532 10.0803 72.8525C12.1242 73.8766 11.9125 76.1635 10.0803 76.1639C3.14513 76.1639 0 71.8893 0 64.5738V38.082C0 30.7665 3.14513 26.4918 10.0803 26.4918Z" fill="white" fill-opacity="0.86"/>
<path d="M171.92 26.4918C178.855 26.4918 182 30.7665 182 38.082V64.5738C182 71.8893 178.855 76.1639 171.92 76.1639C170.088 76.1635 169.876 73.8766 171.92 72.8525C174.556 71.532 174.669 69.541 174.669 66.2295V36.4262C174.669 33.1148 174.556 31.1237 171.92 29.8033C169.876 28.7791 170.088 26.4923 171.92 26.4918Z" fill="white" fill-opacity="0.86"/>
</svg>
